# Blender v2.73 (sub 0) OBJ File: 'barrel.blend'
# www.blender.org
o Barrel_a
v 0.395054 -0.000000 0.162275
v 0.395545 0.000000 -0.163141
v 0.493593 0.243702 -0.203580
v 0.492979 0.243702 0.203011
v 0.165789 0.000000 -0.393593
v 0.206524 0.243702 -0.491517
v -0.159627 0.000000 -0.394084
v -0.200067 0.243702 -0.492131
v -0.390079 0.000000 -0.164327
v -0.488004 0.243702 -0.205063
v -0.390570 -0.000000 0.161089
v -0.488618 0.243702 0.201528
v -0.160814 -0.000000 0.391540
v -0.201549 0.243702 0.489466
v 0.164602 -0.000000 0.392032
v 0.205041 0.243702 0.490079
v 0.493593 0.832482 -0.203580
v 0.492979 0.832482 0.203011
v 0.206524 0.832482 -0.491517
v -0.200066 0.832482 -0.492131
v -0.488004 0.832482 -0.205063
v -0.488618 0.832482 0.201528
v -0.201549 0.832482 0.489466
v 0.205041 0.832482 0.490079
v 0.395545 1.076183 -0.163141
v 0.395054 1.076183 0.162276
v 0.165789 1.076184 -0.393592
v -0.159627 1.076184 -0.394084
v -0.390079 1.076183 -0.164327
v -0.390570 1.076183 0.161089
v -0.160814 1.076183 0.391540
v 0.164602 1.076183 0.392032
v 0.293308 0.000000 -0.120974
v 0.292945 -0.000000 0.119799
v 0.002487 0.000000 -0.001026
v 0.123314 0.000000 -0.291484
v -0.117460 0.000000 -0.291847
v -0.287969 0.000000 -0.121852
v -0.288333 -0.000000 0.118922
v -0.118338 -0.000000 0.289431
v 0.122435 -0.000000 0.289794
v 0.253288 0.955692 0.103303
v 0.253602 0.955692 -0.104597
v 0.002487 1.072733 -0.001026
v 0.106816 0.955692 -0.251826
v -0.101083 0.955692 -0.252140
v -0.248312 0.955692 -0.105355
v -0.248627 0.955692 0.102545
v -0.101841 0.955692 0.249774
v 0.106058 0.955692 0.250088
v 0.293308 1.076183 -0.120973
v 0.292945 1.076183 0.119799
v 0.123314 1.076183 -0.291483
v -0.117460 1.076183 -0.291847
v -0.287969 1.076183 -0.121852
v -0.288333 1.076183 0.118922
v -0.118338 1.076183 0.289431
v 0.122435 1.076183 0.289795
vt 0.812072 0.881834
vt 0.812072 0.991213
vt 0.747020 0.991213
vt 0.747020 0.881834
vt 0.741376 0.993329
vt 0.741377 0.889778
vt 0.844928 0.889778
vt 0.748492 0.623610
vt 0.718193 0.623635
vt 0.718193 0.593311
vt 0.687895 0.623610
vt 0.687870 0.593311
vt 0.687895 0.563013
vt 0.718193 0.562988
vt 0.748492 0.563013
vt 0.748517 0.593311
vt 0.687468 0.815653
vt 0.875667 0.815653
vt 0.850365 0.872762
vt 0.712770 0.872762
vt 0.710161 0.815653
vt 0.852974 0.815653
vt 0.851140 0.878120
vt 0.711995 0.878120
vn 0.927800 -0.373100 0.001400
vn 0.657100 -0.373000 -0.655100
vn 0.001400 -0.373000 -0.927800
vn -0.655100 -0.373100 -0.657000
vn -0.927800 -0.373000 -0.001400
vn -0.657100 -0.373100 0.655100
vn -0.001400 -0.373000 0.927800
vn 0.655100 -0.373000 0.657100
vn 1.000000 0.000000 0.001500
vn 0.708200 0.000000 -0.706000
vn 0.001500 0.000000 -1.000000
vn -0.706000 0.000000 -0.708200
vn -1.000000 0.000000 -0.001500
vn -0.708200 -0.000000 0.706000
vn -0.001500 -0.000000 1.000000
vn 0.706000 -0.000000 0.708200
vn 0.927800 0.373100 0.001400
vn 0.657100 0.373000 -0.655100
vn 0.001400 0.373000 -0.927800
vn -0.655100 0.373100 -0.657000
vn -0.927800 0.373000 -0.001400
vn -0.657100 0.373100 0.655100
vn -0.001400 0.373000 0.927800
vn 0.655100 0.373000 0.657100
vn -0.000000 -1.000000 -0.000000
vn 0.422700 0.906300 0.000600
vn 0.299300 0.906300 -0.298400
vn 0.000600 0.906300 -0.422700
vn -0.298400 0.906300 -0.299300
vn -0.422700 0.906300 -0.000600
vn -0.299300 0.906300 0.298400
vn -0.000600 0.906300 0.422700
vn 0.298400 0.906300 0.299300
vn 0.000000 1.000000 0.000000
vn -0.949800 0.312800 -0.001400
vn -0.672600 0.312800 0.670600
vn -0.001400 0.312800 0.949800
vn 0.670600 0.312800 0.672600
vn 0.949800 0.312800 0.001400
vn 0.672600 0.312800 -0.670600
vn 0.001400 0.312800 -0.949800
vn -0.670600 0.312800 -0.672600
vn 0.927800 -0.373000 0.001400
vn 0.657100 -0.373100 -0.655100
vn -0.655100 -0.373000 -0.657100
vn -0.657100 -0.373000 0.655100
vn -0.001400 -0.373100 0.927800
vn 0.927800 0.373000 0.001400
vn 0.657100 0.373100 -0.655100
vn -0.655100 0.373000 -0.657100
vn -0.657100 0.373000 0.655100
vn -0.001400 0.373100 0.927800
s off
f 1/1/1 2/2/1 3/3/1
f 5/2/2 6/3/2 3/4/2
f 7/2/3 8/3/3 6/4/3
f 7/1/4 9/2/4 10/3/4
f 9/1/5 11/2/5 12/3/5
f 13/2/6 14/3/6 12/4/6
f 13/1/7 15/2/7 16/3/7
f 1/2/8 4/3/8 16/4/8
f 3/2/9 17/3/9 18/4/9
f 6/2/10 19/3/10 17/4/10
f 6/1/11 8/2/11 20/3/11
f 10/2/12 21/3/12 20/4/12
f 12/2/13 22/3/13 21/4/13
f 12/1/14 14/2/14 23/3/14
f 16/2/15 24/3/15 23/4/15
f 4/2/16 18/3/16 24/4/16
f 18/1/17 17/2/17 25/3/17
f 19/2/18 27/3/18 25/4/18
f 19/1/19 20/2/19 28/3/19
f 21/2/20 29/3/20 28/4/20
f 22/2/21 30/3/21 29/4/21
f 22/1/22 23/2/22 31/3/22
f 24/2/23 32/3/23 31/4/23
f 24/1/24 18/2/24 26/3/24
f 33/5/25 34/6/25 35/7/25
f 36/5/25 33/6/25 35/7/25
f 37/5/25 36/6/25 35/7/25
f 38/5/25 37/6/25 35/7/25
f 39/5/25 38/6/25 35/7/25
f 40/5/25 39/6/25 35/7/25
f 41/5/25 40/6/25 35/7/25
f 34/5/25 41/6/25 35/7/25
f 42/8/26 43/9/26 44/10/26
f 43/9/27 45/11/27 44/10/27
f 45/11/28 46/12/28 44/10/28
f 46/12/29 47/13/29 44/10/29
f 47/13/30 48/14/30 44/10/30
f 48/14/31 49/15/31 44/10/31
f 49/15/32 50/16/32 44/10/32
f 50/16/33 42/8/33 44/10/33
f 2/17/25 1/18/25 34/19/25
f 2/18/25 33/19/25 36/20/25
f 7/17/25 5/18/25 36/19/25
f 7/18/25 37/19/25 38/20/25
f 9/18/25 38/19/25 39/20/25
f 13/17/25 11/18/25 39/19/25
f 15/17/25 13/18/25 40/19/25
f 15/18/25 41/19/25 34/20/25
f 25/18/34 51/19/34 52/20/34
f 25/17/34 27/18/34 53/19/34
f 28/18/34 54/19/34 53/20/34
f 28/17/34 29/18/34 55/19/34
f 29/17/34 30/18/34 56/19/34
f 31/18/34 57/19/34 56/20/34
f 32/18/34 58/19/34 57/20/34
f 32/17/34 26/18/34 52/19/34
f 52/21/35 51/22/35 43/23/35
f 51/21/36 53/22/36 45/23/36
f 54/22/37 46/23/37 45/24/37
f 55/22/38 47/23/38 46/24/38
f 55/21/39 56/22/39 48/23/39
f 57/22/40 49/23/40 48/24/40
f 58/22/41 50/23/41 49/24/41
f 58/21/42 52/22/42 42/23/42
f 4/4/43 1/1/43 3/3/43
f 2/1/44 5/2/44 3/4/44
f 5/1/3 7/2/3 6/4/3
f 8/4/45 7/1/45 10/3/45
f 10/4/5 9/1/5 12/3/5
f 11/1/46 13/2/46 12/4/46
f 14/4/47 13/1/47 16/3/47
f 15/1/8 1/2/8 16/4/8
f 4/1/9 3/2/9 18/4/9
f 3/1/10 6/2/10 17/4/10
f 19/4/11 6/1/11 20/3/11
f 8/1/12 10/2/12 20/4/12
f 10/1/13 12/2/13 21/4/13
f 22/4/14 12/1/14 23/3/14
f 14/1/15 16/2/15 23/4/15
f 16/1/16 4/2/16 24/4/16
f 26/4/48 18/1/48 25/3/48
f 17/1/49 19/2/49 25/4/49
f 27/4/19 19/1/19 28/3/19
f 20/1/50 21/2/50 28/4/50
f 21/1/21 22/2/21 29/4/21
f 30/4/51 22/1/51 31/3/51
f 23/1/52 24/2/52 31/4/52
f 32/4/24 24/1/24 26/3/24
f 33/20/25 2/17/25 34/19/25
f 5/17/25 2/18/25 36/20/25
f 37/20/25 7/17/25 36/19/25
f 9/17/25 7/18/25 38/20/25
f 11/17/25 9/18/25 39/20/25
f 40/20/25 13/17/25 39/19/25
f 41/20/25 15/17/25 40/19/25
f 1/17/25 15/18/25 34/20/25
f 26/17/34 25/18/34 52/20/34
f 51/20/34 25/17/34 53/19/34
f 27/17/34 28/18/34 53/20/34
f 54/20/34 28/17/34 55/19/34
f 55/20/34 29/17/34 56/19/34
f 30/17/34 31/18/34 56/20/34
f 31/17/34 32/18/34 57/20/34
f 58/20/34 32/17/34 52/19/34
f 42/24/35 52/21/35 43/23/35
f 43/24/36 51/21/36 45/23/36
f 53/21/37 54/22/37 45/24/37
f 54/21/38 55/22/38 46/24/38
f 47/24/39 55/21/39 48/23/39
f 56/21/40 57/22/40 48/24/40
f 57/21/41 58/22/41 49/24/41
f 50/24/42 58/21/42 42/23/42
