# Blender v2.73 (sub 0) OBJ File: 'wall.blend'
# www.blender.org
o Cube
v 0.125000 -0.500000 -0.135000
v 0.125000 -0.500000 0.115000
v -0.125000 -0.500000 0.115000
v -0.125000 -0.500000 -0.135000
v 0.125000 0.500000 -0.135000
v 0.125000 0.500000 0.115000
v -0.125000 0.500000 0.115000
v -0.125000 0.500000 -0.135000
vt 0.876144 0.998108
vt 0.876144 0.815590
vt 0.952692 0.815590
vt 0.947015 0.813698
vt 0.947015 1.000000
vt 0.881821 1.000000
vt 0.375977 0.937500
vt 0.375977 1.000000
vt 0.190430 1.000000
vt 0.879929 0.813697
vt 0.945123 0.813697
vt 0.945123 0.998108
vt 0.375000 0.935547
vt 0.375000 1.000000
vt 0.187500 1.000000
vt 0.950800 1.000000
vt 0.874252 1.000000
vt 0.874252 0.817482
vt 0.952692 0.998108
vt 0.881821 0.813698
vt 0.190430 0.937500
vt 0.879929 0.998108
vt 0.187500 0.935547
vt 0.950800 0.817482
vn 0.000000 -1.000000 0.000000
vn 0.000000 1.000000 0.000000
vn 1.000000 0.000000 0.000000
vn -0.000000 0.000000 1.000000
vn -1.000000 -0.000000 -0.000000
vn 0.000000 0.000000 -1.000000
s off
f 1/1/1 2/2/1 3/3/1
f 8/4/2 7/5/2 6/6/2
f 5/7/3 6/8/3 2/9/3
f 6/10/4 7/11/4 3/12/4
f 7/13/5 8/14/5 4/15/5
f 1/16/6 4/17/6 8/18/6
f 4/19/1 1/1/1 3/3/1
f 5/20/2 8/4/2 6/6/2
f 1/21/3 5/7/3 2/9/3
f 2/22/4 6/10/4 3/12/4
f 3/23/5 7/13/5 4/15/5
f 5/24/6 1/16/6 8/18/6
