# Blender v2.73 (sub 0) OBJ File: 'book.blend'
# www.blender.org
mtllib book.mtl
o Book_1
v -0.136019 0.204667 0.030243
v 0.136019 0.204667 0.030243
v 0.136019 0.204667 -0.030243
v -0.136019 0.204667 -0.030243
v 0.136019 -0.204667 -0.030243
v -0.136019 -0.204667 -0.030243
v 0.136019 -0.204667 0.030243
v -0.136019 -0.204667 0.030243
vt 0.842747 0.312353
vt 0.813287 0.312353
vt 0.813287 0.250410
vt 0.592553 0.250410
vt 0.592553 0.312353
vt 0.563094 0.312353
vt 0.563094 0.250410
vt 0.842747 0.250410
vn 0.000000 1.000000 0.000000
vn 0.000000 0.000000 -1.000000
vn 0.000000 -1.000000 0.000000
vn 0.000000 -0.000000 1.000000
vn 1.000000 0.000000 0.000000
vn -1.000000 -0.000000 0.000000
usemtl None
s off
f 2/1/1 3/2/1 4/3/1
f 3/4/2 5/5/2 6/6/2
f 5/1/3 7/2/3 8/3/3
f 1/4/4 8/5/4 7/6/4
f 7/1/5 5/2/5 3/3/5
f 1/7/6 4/4/6 6/5/6
f 1/8/1 2/1/1 4/3/1
f 4/7/2 3/4/2 6/6/2
f 6/8/3 5/1/3 8/3/3
f 2/7/4 1/4/4 7/6/4
f 2/8/5 7/1/5 3/3/5
f 8/6/6 1/7/6 6/5/6
